<svg xmlns="http://www.w3.org/2000/svg" viewBox="0 0 37 31" fill="#F5333A" shape-rendering="crispEdges"><rect x="15" y="0" width="4" height="1"/><rect x="10" y="1" width="1" height="1"/><rect x="15" y="1" width="4" height="1"/><rect x="23" y="1" width="1" height="1"/><rect x="10" y="2" width="2" height="1"/><rect x="13" y="2" width="8" height="1"/><rect x="22" y="2" width="3" height="1"/><rect x="10" y="3" width="15" height="1"/><rect x="8" y="4" width="18" height="1"/><rect x="7" y="5" width="19" height="1"/><rect x="4" y="6" width="4" height="1"/><rect x="10" y="6" width="20" height="1"/><rect x="4" y="7" width="4" height="1"/><rect x="10" y="7" width="20" height="1"/><rect x="2" y="8" width="6" height="1"/><rect x="10" y="8" width="19" height="1"/><rect x="2" y="9" width="6" height="1"/><rect x="10" y="9" width="21" height="1"/><rect x="35" y="9" width="2" height="1"/><rect x="2" y="10" width="6" height="1"/><rect x="10" y="10" width="21" height="1"/><rect x="35" y="10" width="2" height="1"/><rect x="2" y="11" width="2" height="1"/><rect x="6" y="11" width="2" height="1"/><rect x="10" y="11" width="21" height="1"/><rect x="34" y="11" width="3" height="1"/><rect x="0" y="12" width="4" height="1"/><rect x="6" y="12" width="2" height="1"/><rect x="10" y="12" width="21" height="1"/><rect x="34" y="12" width="3" height="1"/><rect x="0" y="13" width="8" height="1"/><rect x="13" y="13" width="19" height="1"/><rect x="33" y="13" width="3" height="1"/><rect x="0" y="14" width="8" height="1"/><rect x="10" y="14" width="3" height="1"/><rect x="14" y="14" width="22" height="1"/><rect x="0" y="15" width="8" height="1"/><rect x="10" y="15" width="3" height="1"/><rect x="14" y="15" width="22" height="1"/><rect x="0" y="16" width="8" height="1"/><rect x="10" y="16" width="3" height="1"/><rect x="14" y="16" width="22" height="1"/><rect x="0" y="17" width="8" height="1"/><rect x="13" y="17" width="19" height="1"/><rect x="33" y="17" width="3" height="1"/><rect x="2" y="18" width="6" height="1"/><rect x="10" y="18" width="21" height="1"/><rect x="34" y="18" width="3" height="1"/><rect x="2" y="19" width="6" height="1"/><rect x="9" y="19" width="22" height="1"/><rect x="34" y="19" width="3" height="1"/><rect x="2" y="20" width="29" height="1"/><rect x="34" y="20" width="3" height="1"/><rect x="2" y="21" width="27" height="1"/><rect x="4" y="22" width="25" height="1"/><rect x="4" y="23" width="25" height="1"/><rect x="4" y="24" width="25" height="1"/><rect x="7" y="25" width="19" height="1"/><rect x="8" y="26" width="17" height="1"/><rect x="8" y="27" width="17" height="1"/><rect x="8" y="28" width="3" height="1"/><rect x="13" y="28" width="8" height="1"/><rect x="23" y="28" width="2" height="1"/><rect x="15" y="29" width="4" height="1"/><rect x="15" y="30" width="4" height="1"/></svg>
